<svg width="24" height="24" viewBox="0 0 24 24" fill="none" xmlns="http://www.w3.org/2000/svg">
<circle cx="12" cy="12" r="12" fill="white"/>
<path d="M10.3789 16.7793C11.6768 16.7793 12.729 15.8501 12.729 14.4292V3.88867H15.5474C15.3893 5.81098 17.3003 7.66787 19.4077 7.62541V10.2757C17.6054 10.2757 16.0728 9.51357 15.5394 9.09063V14.4292C15.5394 16.7793 13.6906 19.4442 10.3789 19.4442C7.06721 19.4442 5.25879 16.7793 5.25879 14.4292C5.25879 11.1123 8.76894 9.18861 11.0938 9.65878V12.3582C10.9768 12.3168 10.6752 12.2557 10.4183 12.2557C9.10962 12.2074 8.02884 13.2689 8.02884 14.4292C8.02884 15.7271 9.08101 16.7793 10.3789 16.7793Z" fill="black"/>
</svg>
