<svg width="24" height="24" viewBox="0 0 24 24" fill="none" xmlns="http://www.w3.org/2000/svg">
<circle cx="12" cy="12" r="12" fill="white"/>
<path d="M12.3337 3.18164C10.0294 3.18164 9.74023 3.19172 8.83521 3.2329C7.93195 3.27427 7.3154 3.41727 6.77593 3.6271C6.21789 3.84381 5.74452 4.13371 5.27292 4.6055C4.80096 5.07712 4.51107 5.5505 4.29365 6.10838C4.08331 6.64805 3.94013 7.2648 3.89947 8.16773C3.85899 9.07278 3.84839 9.36214 3.84839 11.6665C3.84839 13.9708 3.85864 14.2591 3.89965 15.1642C3.94119 16.0675 4.08419 16.684 4.29383 17.2235C4.51072 17.7816 4.80061 18.255 5.27239 18.7266C5.74381 19.1986 6.21718 19.4892 6.77487 19.7059C7.3147 19.9157 7.93142 20.0587 8.8345 20.1001C9.73952 20.1413 10.0285 20.1513 12.3326 20.1513C14.6371 20.1513 14.9254 20.1413 15.8304 20.1001C16.7337 20.0587 17.3509 19.9157 17.8907 19.7059C18.4486 19.4892 18.9213 19.1986 19.3927 18.7266C19.8646 18.255 20.1545 17.7816 20.372 17.2237C20.5805 16.684 20.7237 16.0673 20.7661 15.1644C20.8068 14.2593 20.8174 13.9708 20.8174 11.6665C20.8174 9.36214 20.8068 9.07295 20.7661 8.1679C20.7237 7.26462 20.5805 6.64805 20.372 6.10856C20.1545 5.5505 19.8646 5.07712 19.3927 4.6055C18.9207 4.13353 18.4488 3.84364 17.8902 3.6271C17.3493 3.41727 16.7324 3.27427 15.8292 3.2329C14.9241 3.19172 14.636 3.18164 12.331 3.18164H12.3337ZM11.5725 4.71068C11.7985 4.71033 12.0505 4.71068 12.3337 4.71068C14.5991 4.71068 14.8676 4.71881 15.7622 4.75947C16.5894 4.7973 17.0384 4.93553 17.3375 5.05167C17.7334 5.20545 18.0157 5.38929 18.3125 5.68626C18.6095 5.98323 18.7933 6.26606 18.9474 6.66202C19.0636 6.96076 19.202 7.40975 19.2396 8.23702C19.2803 9.13146 19.2891 9.40015 19.2891 11.6645C19.2891 13.9289 19.2803 14.1976 19.2396 15.0921C19.2018 15.9193 19.0636 16.3683 18.9474 16.6671C18.7936 17.063 18.6095 17.345 18.3125 17.6418C18.0155 17.9387 17.7336 18.1226 17.3375 18.2764C17.0387 18.393 16.5894 18.5309 15.7622 18.5687C14.8678 18.6094 14.5991 18.6182 12.3337 18.6182C10.0681 18.6182 9.79962 18.6094 8.90521 18.5687C8.07796 18.5306 7.62898 18.3923 7.32972 18.2762C6.93377 18.1224 6.65095 17.9386 6.35399 17.6416C6.05703 17.3446 5.8732 17.0625 5.71906 16.6664C5.60293 16.3676 5.46453 15.9186 5.42688 15.0914C5.38622 14.1969 5.37809 13.9282 5.37809 11.6624C5.37809 9.39661 5.38622 9.12934 5.42688 8.2349C5.4647 7.40763 5.60293 6.95863 5.71906 6.65954C5.87285 6.26358 6.05703 5.98076 6.35399 5.68379C6.65095 5.38682 6.93377 5.20298 7.32972 5.04884C7.6288 4.93217 8.07796 4.79429 8.90521 4.75629C9.68791 4.72093 9.99123 4.71033 11.5725 4.70856V4.71068ZM16.8627 6.11952C16.3006 6.11952 15.8445 6.57505 15.8445 7.13735C15.8445 7.69947 16.3006 8.15553 16.8627 8.15553C17.4248 8.15553 17.8808 7.69947 17.8808 7.13735C17.8808 6.57523 17.4248 6.11917 16.8627 6.11917V6.11952ZM12.3337 7.30916C9.92742 7.30916 7.9765 9.26015 7.9765 11.6665C7.9765 14.0728 9.92742 16.0229 12.3337 16.0229C14.74 16.0229 16.6902 14.0728 16.6902 11.6665C16.6902 9.26015 14.7398 7.30916 12.3335 7.30916H12.3337ZM12.3337 8.83821C13.8956 8.83821 15.1619 10.1044 15.1619 11.6665C15.1619 13.2284 13.8956 14.4948 12.3337 14.4948C10.7716 14.4948 9.50549 13.2284 9.50549 11.6665C9.50549 10.1044 10.7716 8.83821 12.3337 8.83821V8.83821Z" fill="black"/>
</svg>
