<svg width="26" height="26" viewBox="0 0 26 26" fill="none" xmlns="http://www.w3.org/2000/svg">
<path d="M2.90883 10.3333C2.69184 11.1773 2.58248 12.0453 2.58333 12.9167C2.58333 13.8079 2.697 14.6733 2.90883 15.5H6.5875C6.41485 13.7821 6.41485 12.0512 6.5875 10.3333H2.90883ZM3.96542 7.75H6.99567C7.33925 6.17804 7.83525 4.77013 8.44363 3.59858C6.56858 4.50233 5.00839 5.94868 3.96542 7.75ZM22.9245 10.3333H19.2458C19.4185 12.0512 19.4185 13.7821 19.2458 15.5H22.9245C23.3592 13.8052 23.3592 12.0281 22.9245 10.3333ZM21.8679 7.75C20.8249 5.94868 19.2648 4.50233 17.3897 3.59858C17.9994 4.77013 18.4941 6.17804 18.8377 7.75H21.8679ZM9.18633 10.3333C9.0902 11.1911 9.0419 12.0535 9.04167 12.9167C9.04167 13.8015 9.09075 14.6669 9.18633 15.5H16.647C16.8411 13.7832 16.8411 12.0501 16.647 10.3333H9.18633ZM9.64875 7.75H16.1846C15.9491 6.77917 15.61 5.83644 15.1732 4.93804C14.362 3.317 13.494 2.58333 12.9167 2.58333C12.3393 2.58333 11.4713 3.317 10.6601 4.93804C10.2533 5.75438 9.91096 6.70375 9.64875 7.75ZM3.96542 18.0833C5.00839 19.8847 6.56858 21.331 8.44363 22.2348C7.83396 21.0632 7.33925 19.6553 6.99567 18.0833H3.96542ZM21.8679 18.0833H18.8377C18.4941 19.6553 17.9981 21.0632 17.3897 22.2348C19.2648 21.331 20.8249 19.8847 21.8679 18.0833ZM9.64875 18.0833C9.91096 19.1296 10.2533 20.079 10.6601 20.8953C11.4713 22.5163 12.3393 23.25 12.9167 23.25C13.494 23.25 14.362 22.5163 15.1732 20.8953C15.5801 20.079 15.9224 19.1296 16.1846 18.0833H9.64875ZM12.9167 25.8333C5.78279 25.8333 0 20.0505 0 12.9167C0 5.78279 5.78279 0 12.9167 0C20.0505 0 25.8333 5.78279 25.8333 12.9167C25.8333 20.0505 20.0505 25.8333 12.9167 25.8333Z" fill="#838281"/>
</svg>
